<?xml version="1.0" standalone="no"?>
<!DOCTYPE svg PUBLIC "-//W3C//DTD SVG 20010904//EN"
 "http://www.w3.org/TR/2001/REC-SVG-20010904/DTD/svg10.dtd">
<svg version="1.0" xmlns="http://www.w3.org/2000/svg"
 width="106.000000pt" height="106.000000pt" viewBox="0 0 106.000000 106.000000"
 preserveAspectRatio="xMidYMid meet">
<metadata>
Created by potrace 1.11, written by Peter Selinger 2001-2013
</metadata>
<g transform="translate(0.000000,106.000000) scale(0.100000,-0.100000)"
fill="#000000" stroke="none">
<path d="M6 901 c-2 -6 0 -179 3 -201 0 -5 18 -10 39 -10 l37 0 0 -157 0 -158
-40 -5 -40 -5 -1 -95 c0 -52 2 -101 4 -107 3 -10 52 -13 198 -13 187 0 194 1
195 20 0 11 1 49 1 85 0 121 3 113 -43 117 l-42 3 0 88 c1 48 3 90 5 93 3 2
49 -57 102 -131 54 -75 102 -135 106 -133 5 2 52 63 105 136 53 72 99 132 103
132 4 0 7 -19 6 -42 -2 -24 -3 -67 -3 -95 l-1 -53 -40 0 c-35 0 -40 -3 -41
-22 -1 -25 -1 -180 0 -188 1 -3 90 -5 198 -5 l198 0 1 95 c0 52 -2 101 -4 108
-2 6 -20 12 -41 12 l-36 0 0 153 c0 83 4 157 7 163 4 6 19 9 34 6 14 -2 29 0
33 7 6 8 7 177 2 201 0 3 -71 5 -157 5 -127 0 -157 -3 -164 -15 -24 -42 -193
-265 -201 -265 -4 0 -54 63 -109 140 l-101 140 -155 0 c-85 1 -156 -1 -158 -4z"/>
</g>
</svg>
